<?xml version="1.0" encoding="utf-8"?>
<!-- Generator: Adobe Illustrator 23.0.1, SVG Export Plug-In . SVG Version: 6.00 Build 0)  -->
<svg version="1.1" id="Layer_1" xmlns="http://www.w3.org/2000/svg" xmlns:xlink="http://www.w3.org/1999/xlink" x="0px" y="0px"
	 viewBox="0 0 35 35" style="enable-background:new 0 0 35 35;" xml:space="preserve">
<title>ov-chipkaart</title>
<path d="M15.8,7.5l-0.1,0H6.3v20.2h14.4V12.3L15.8,7.5z M15.9,8.9l3.2,3.3h-3.2V8.9z M19.7,26.6H7.3V8.4h7.7v4.8h4.8V26.6z"/>
<rect x="10.1" y="16.1" width="1.9" height="1"/>
<rect x="13" y="16.1" width="1.9" height="1"/>
<rect x="15.9" y="16.1" width="1" height="1"/>
<rect x="10.1" y="19.9" width="1.9" height="1"/>
<rect x="10.1" y="18" width="1.9" height="1"/>
<rect x="13" y="19.9" width="1.9" height="1"/>
<rect x="13" y="18" width="1.9" height="1"/>
<rect x="15.9" y="19.9" width="1" height="1"/>
<rect x="15.9" y="18" width="1" height="1"/>
<rect x="14" y="22.8" width="2.9" height="1"/>
</svg>
