<svg xmlns="http://www.w3.org/2000/svg" viewBox="0 0 35 35"><title>ov-chipkaart</title><path d="M4.932,22.486H7.691a2.489,2.489,0,0,0,1.627-.637l7.427-7.427a.766.766,0,0,1,.495-.212h2.688a.688.688,0,0,1,.707.566v5.306a.624.624,0,0,1-.566.637H18.654A3,3,0,1,0,16.532,24.4a3.032,3.032,0,0,0,2.051-1.981h1.485a2.161,2.161,0,0,0,2.264-2.122V14.848a2.161,2.161,0,0,0-2.122-2.264h-2.9a2.238,2.238,0,0,0-1.627.637L8.257,20.648a.6.6,0,0,1-.5.141H5a.688.688,0,0,1-.707-.566V14.917a.624.624,0,0,1,.566-.637H6.348A3,3,0,1,0,8.47,10.6a2.929,2.929,0,0,0-1.981,1.981H4.932a2.161,2.161,0,0,0-2.264,2.122v5.446A2.161,2.161,0,0,0,4.79,22.415.22.22,0,0,0,4.932,22.486Zm10.752.778a1.7,1.7,0,1,1,1.7-1.7A1.635,1.635,0,0,1,15.684,23.264ZM9.318,11.805a1.7,1.7,0,1,1-1.7,1.7A1.721,1.721,0,0,1,9.318,11.805Z"/></svg>