<svg xmlns="http://www.w3.org/2000/svg" viewBox="0 0 35 35"><title>chat</title><path d="M23,13.5H11A1.538,1.538,0,0,0,9.5,15v7A1.538,1.538,0,0,0,11,23.5h3.5v5l5-5H23A1.538,1.538,0,0,0,24.5,22V15A1.538,1.538,0,0,0,23,13.5Zm.5,8.5a.472.472,0,0,1-.5.5H19.1l-3.6,3.6V22.5H11a.472.472,0,0,1-.5-.5V15a.472.472,0,0,1,.5-.5H23a.472.472,0,0,1,.5.5Z"/><path d="M14,6.5H2A1.538,1.538,0,0,0,.5,8v7A1.538,1.538,0,0,0,2,16.5H4.5l3,3V18.1L4.9,15.5H2a.472.472,0,0,1-.5-.5V8A.472.472,0,0,1,2,7.5H14a.472.472,0,0,1,.5.5v3.5h1V8A1.538,1.538,0,0,0,14,6.5Z"/></svg>