<svg xmlns="http://www.w3.org/2000/svg" width="30" height="30" viewBox="0 0 30 30"><defs><style>.a{fill:#359fdd;}.b{fill:#fff;}</style></defs><title>NS_icons-TDH</title><rect class="a" x="3.5" y="3.5" width="23" height="23"/><path class="b" d="M9.454,14.726H5.687l-.268-.641H4.966l-.283.641H3.508V12.791l.861-1.97H6.017l.231.558v-.554H8.263l.443.94.433-.944H15.5a1.073,1.073,0,0,1,.553.152v-.152h1.6v.213a1.293,1.293,0,0,1,.714-.213H21.2l.248.567v-.567h1.812l.329.567v-.567h1.732v3.909h-1.78l-.418-.681v.678H20.909l-.311-.7h-.433l-.292.7H18.533a1.718,1.718,0,0,1-.874-.278v.278H9.454Z"/><path class="b" d="M8.124,15.572h3.5l.5.579.517-.579h2.693a1.228,1.228,0,0,1,.493.136v-.136h2.4a1.215,1.215,0,0,1,.56.154v-.154h3.082v.142a1.034,1.034,0,0,1,.514-.142H24.4v.142a1.216,1.216,0,0,1,.52-.142h1.576v3.683a.863.863,0,0,1-.636.237H23.778v-.117a1.056,1.056,0,0,1-.5.117H15.834V18.436a1.151,1.151,0,0,1-.511.1H14.7v.952H12.576l-.484-.6-.517.6H8.124Z"/><polygon class="a" points="19.162 16.16 21.359 16.16 21.359 16.756 19.834 16.756 19.834 17.277 21.317 17.277 21.317 17.802 19.834 17.802 19.834 18.349 21.359 18.349 21.359 18.931 19.162 18.931 19.162 16.16"/><path class="a" d="M25.6,17.24c.826.043.9.461.9.906a.8.8,0,0,1-.862.8H24.226v-.594h1.1c.186,0,.464,0,.464-.266,0-.126-.049-.207-.248-.228-.088-.013-.415-.031-.464-.032-.746-.02-.92-.4-.92-.853a.759.759,0,0,1,.8-.8h1.412v.594H25.339c-.235,0-.488-.028-.488.241,0,.17.125.2.284.22C25.189,17.221,25.556,17.24,25.6,17.24Z"/><path class="a" d="M23.074,17.24c.826.043.9.461.9.906a.8.8,0,0,1-.862.8H21.7v-.594h1.1c.186,0,.465,0,.465-.266,0-.126-.049-.207-.248-.228-.089-.013-.416-.031-.465-.032-.746-.02-.92-.4-.92-.853a.759.759,0,0,1,.8-.8h1.412v.594H22.808c-.235,0-.489-.028-.489.241,0,.17.125.2.284.22C22.658,17.221,23.025,17.24,23.074,17.24Z"/><path class="a" d="M15.1,16.166H12.744l-.77.86-.745-.866H8.579v2.771h2.564l.807-.916.788.922h1.29V18h.9c.349,0,.984-.012.984-.983A.762.762,0,0,0,15.1,16.166Zm-4.312,2.183H9.242V17.8h1.482v-.526H9.242v-.52l1.635,0,.654.754Zm2.57.322L12.4,17.514l.966-1.082Zm1.516-1.245H14.04v-.665h.84a.335.335,0,1,1,0,.665Z"/><path class="a" d="M18.351,17.675a.758.758,0,0,0,.465-.767.726.726,0,0,0-.807-.742H16.261v2.771h.672V17.96h.88c.232,0,.324.235.33.47l.018.508h.654l-.024-.569C18.791,17.922,18.669,17.712,18.351,17.675Zm-.58-.287h-.837v-.628h.84a.324.324,0,0,1,.37.319C18.143,17.265,18.045,17.389,17.77,17.389Z"/><rect class="a" x="16.53" y="11.376" width="0.672" height="2.774"/><polygon class="a" points="11.027 11.379 13.224 11.379 13.224 11.976 11.7 11.976 11.7 12.496 13.181 12.496 13.181 13.021 11.7 13.021 11.7 13.569 13.224 13.569 13.224 14.15 11.027 14.15 11.027 11.379"/><path class="a" d="M15.713,12.888a.757.757,0,0,0,.465-.767.725.725,0,0,0-.807-.742H13.623V14.15H14.3v-.977h.88c.233,0,.324.235.33.47l.019.508h.654l-.024-.569C16.154,13.136,16.031,12.925,15.713,12.888Zm-.581-.287H14.3v-.628h.84a.324.324,0,0,1,.37.319C15.505,12.478,15.408,12.6,15.133,12.6Z"/><path class="a" d="M9.477,11.379l-.825,1.859-.822-1.859H6.775v2.669L5.6,11.379H4.712l-1.2,2.771h.709l.262-.619H5.828l.266.619H7.448V12.093l.9,2.057h.611l.92-2.023V14.15h.672V11.379ZM4.74,12.934l.4-.969.418.969Z"/><path class="a" d="M24.139,11.378V13.3l-1.134-1.919h-.993v2.6l-1.146-2.6h-.89l-.926,2.147s-.391,0-.431-.01c-.163-.034-.415-.149-.419-.638v-.2c0-.65.349-.7.8-.7h.415v-.6h-.878c-.306,0-.97.236-.993,1.374-.015.767.315,1.4,1.06,1.4h.886l.263-.619h1.342l.266.619h1.326V12.122l1.21,2.029h.917V11.378ZM20.01,12.935l.4-.969.422.969Z"/></svg>