<svg xmlns="http://www.w3.org/2000/svg" viewBox="0 0 22.002 19.191">
    <defs>
        <style>.a{fill:#fff;}.b{fill:#cd0067;}</style>
    </defs>
    <path class="a" d="M.99,1H15.019A6.066,6.066,0,0,1,21.085,7.07h0v5.2a6.066,6.066,0,0,1-6.066,6.066H.99V1Z"/>
    <rect fill="#000" x="2.445" y="10.797" width="3.525" height="5.854"/>
    <circle fill="#000" cx="4.241" cy="7.871" r="1.996"/>
    <path fill="#000" d="M12.648,0H0V19.182H12.648a9.994,9.994,0,0,0,6.5-2.045C21.042,15.526,22,12.991,22,9.591a11.7,11.7,0,0,0-.749-4.329,7.889,7.889,0,0,0-2.088-3.019A9.863,9.863,0,0,0,12.648.005Zm-.239,1.274a8.728,8.728,0,0,1,5.908,1.917c1.6,1.42,2.409,3.572,2.409,6.4,0,5.6-2.721,8.317-8.317,8.317H1.274V1.274Z"/>
    <path class="b" d="M14.638,8.314h.647l-.327-.879Z"/>
    <path class="b" d="M17.123,9.815V6.332h.853V9.069h1.58c-.323-4.9-4.109-6.244-7.676-6.244H7.589v3.48h.457a2.437,2.437,0,0,1,.659.067,1.205,1.205,0,0,1,.542.331,1.545,1.545,0,0,1,.338.572,2.564,2.564,0,0,1,.114.816,2.279,2.279,0,0,1-.107.738,1.557,1.557,0,0,1-.379.624,1.272,1.272,0,0,1-.508.287,2.1,2.1,0,0,1-.622.075H7.59v6.842h4.291c3.717,0,7.672-1.116,7.7-6.842Zm-4.138,0h-2.71V6.305h2.646v.746H11.129v.555H12.8v.746H11.129v.717h1.856Zm2.874,0-.29-.755h-1.2l-.275.755h-.91l1.364-3.51h.839l1.4,3.51Z"/>
    <path class="b" d="M8.378,9.04a.53.53,0,0,0,.233-.117.626.626,0,0,0,.15-.28,2.076,2.076,0,0,0,.064-.582A1.907,1.907,0,0,0,8.761,7.5a.672.672,0,0,0-.167-.284.553.553,0,0,0-.269-.134,2.8,2.8,0,0,0-.533-.03h-.2V9.068h.4A1.784,1.784,0,0,0,8.378,9.04Z"/>
</svg>