<svg xmlns="http://www.w3.org/2000/svg" width="40" height="30" viewBox="0 0 40 30"><defs><style>.a{fill:#0066b2;}.b{fill:#f9a533;}</style></defs><title>NS_icons-TDH</title><polygon class="a" points="17.606 20.645 14.669 20.645 16.505 9.362 19.443 9.362 17.606 20.645"/><path class="a" d="M35.3,20.645H38L35.648,9.362H33.287a1.351,1.351,0,0,0-1.357.841L27.55,20.645h3.062l.613-1.676h3.734Zm-3.232-3.991,1.543-4.223.869,4.223Z"/><path class="a" d="M27.779,12.075,28.2,9.652a8.485,8.485,0,0,0-2.642-.492c-1.458,0-4.92.637-4.92,3.735,0,2.915,4.064,2.951,4.064,4.482s-3.644,1.257-4.848.292L19.416,20.2a8.225,8.225,0,0,0,3.316.638c2,0,5.029-1.038,5.029-3.862,0-2.933-4.1-3.207-4.1-4.482S26.523,11.383,27.779,12.075Z"/><path class="b" d="M9.065,15.452l-.988-5.074A1.257,1.257,0,0,0,6.684,9.362H2.054L2,9.553a11.384,11.384,0,0,1,4.36,2.189A8.79,8.79,0,0,1,9.065,15.452Z"/><path class="a" d="M12.2,9.362l-2.8,7.76-.332-1.671h0a8.789,8.789,0,0,0-2.705-3.71,11.261,11.261,0,0,0-1.286-.9l2.551,9.8h3.06L15.359,9.362Z"/></svg>