<svg xmlns="http://www.w3.org/2000/svg" width="32" height="30" viewBox="0 0 32 30"><defs><style>.a{fill:#fbb231;}.a,.b,.c{fill-rule:evenodd;}.b{fill:#ec1c2e;}.c{fill:#fff;}</style></defs><title>NS_icons-TDH</title><polygon class="a" points="22.006 23.978 22.469 23.966 22.926 23.933 23.375 23.876 23.82 23.796 24.253 23.697 24.68 23.575 25.098 23.433 25.507 23.273 25.906 23.091 26.294 22.894 26.67 22.676 27.036 22.443 27.388 22.192 27.726 21.925 28.054 21.643 28.366 21.344 28.665 21.031 28.947 20.704 29.214 20.365 29.465 20.014 29.698 19.648 29.916 19.272 30.113 18.884 30.295 18.485 30.455 18.075 30.597 17.657 30.719 17.231 30.818 16.798 30.897 16.353 30.955 15.904 30.989 15.447 31 14.984 30.989 14.523 30.955 14.069 30.897 13.621 30.818 13.181 30.719 12.749 30.597 12.324 30.455 11.907 30.295 11.501 30.113 11.104 29.916 10.716 29.698 10.344 29.465 9.978 29.214 9.626 28.947 9.29 28.665 8.963 28.366 8.651 28.054 8.354 27.726 8.073 27.388 7.806 27.036 7.555 26.67 7.321 26.294 7.107 25.906 6.91 25.507 6.728 25.098 6.567 24.68 6.425 24.253 6.304 23.82 6.204 23.375 6.126 22.926 6.068 22.469 6.034 22.006 6.022 21.545 6.034 21.088 6.068 20.64 6.126 20.198 6.204 19.765 6.304 19.338 6.425 18.923 6.567 18.514 6.728 18.117 6.91 17.732 7.107 17.357 7.321 16.994 7.555 16.643 7.806 16.303 8.073 15.979 8.354 15.667 8.651 15.37 8.963 15.088 9.29 14.822 9.626 14.574 9.978 14.341 10.344 14.126 10.716 13.926 11.104 13.747 11.501 13.586 11.907 13.447 12.324 13.326 12.749 13.226 13.181 13.147 13.621 13.09 14.069 13.056 14.523 13.044 14.984 13.056 15.447 13.09 15.904 13.147 16.353 13.226 16.798 13.326 17.231 13.447 17.657 13.586 18.075 13.747 18.485 13.926 18.884 14.126 19.272 14.341 19.648 14.574 20.014 14.822 20.365 15.088 20.704 15.37 21.031 15.667 21.344 15.979 21.643 16.303 21.925 16.643 22.192 16.994 22.443 17.357 22.676 17.732 22.894 18.117 23.091 18.514 23.273 18.923 23.433 19.338 23.575 19.765 23.697 20.198 23.796 20.64 23.876 21.088 23.933 21.545 23.966 22.006 23.978 22.006 23.978 22.006 23.978"/><polygon class="b" points="9.995 23.978 10.455 23.966 10.912 23.933 11.361 23.876 11.803 23.796 12.236 23.697 12.662 23.575 13.078 23.433 13.487 23.273 13.883 23.091 14.268 22.894 14.644 22.676 15.006 22.443 15.358 22.192 15.697 21.925 16.021 21.643 16.333 21.344 16.63 21.031 16.912 20.704 17.178 20.365 17.426 20.014 17.66 19.648 17.875 19.272 18.075 18.884 18.253 18.485 18.414 18.075 18.553 17.657 18.674 17.231 18.774 16.798 18.853 16.353 18.911 15.904 18.944 15.447 18.956 14.984 18.944 14.523 18.911 14.069 18.853 13.621 18.774 13.181 18.674 12.749 18.553 12.324 18.414 11.907 18.253 11.501 18.075 11.104 17.875 10.716 17.66 10.344 17.426 9.978 17.178 9.626 16.912 9.29 16.63 8.963 16.333 8.651 16.021 8.354 15.697 8.073 15.358 7.806 15.006 7.555 14.644 7.321 14.268 7.107 13.883 6.91 13.487 6.728 13.078 6.567 12.662 6.425 12.236 6.304 11.803 6.204 11.361 6.126 10.912 6.068 10.455 6.034 9.995 6.022 9.531 6.034 9.074 6.068 8.626 6.126 8.18 6.204 7.747 6.304 7.32 6.425 6.902 6.567 6.494 6.728 6.094 6.91 5.706 7.107 5.331 7.321 4.964 7.555 4.613 7.806 4.274 8.073 3.947 8.354 3.635 8.651 3.335 8.963 3.053 9.29 2.787 9.626 2.535 9.978 2.302 10.344 2.084 10.716 1.888 11.104 1.706 11.501 1.545 11.907 1.403 12.324 1.282 12.749 1.182 13.181 1.103 13.621 1.045 14.069 1.012 14.523 1 14.984 1.012 15.447 1.045 15.904 1.103 16.353 1.182 16.798 1.282 17.231 1.403 17.657 1.545 18.075 1.706 18.485 1.888 18.884 2.084 19.272 2.302 19.648 2.535 20.014 2.787 20.365 3.053 20.704 3.335 21.031 3.635 21.344 3.947 21.643 4.274 21.925 4.613 22.192 4.964 22.443 5.331 22.676 5.706 22.894 6.094 23.091 6.494 23.273 6.902 23.433 7.32 23.575 7.747 23.697 8.18 23.796 8.626 23.876 9.074 23.933 9.531 23.966 9.995 23.978 9.995 23.978 9.995 23.978"/><polygon class="a" points="14.95 9.466 19.719 9.466 19.719 8.978 15.361 8.978 14.95 9.466 14.95 9.466 14.95 9.466"/><polygon class="a" points="14.235 10.55 19.719 10.55 19.719 10.062 14.522 10.062 14.235 10.55 14.235 10.55 14.235 10.55"/><polygon class="a" points="13.702 11.631 19.719 11.631 19.719 11.143 13.914 11.143 13.702 11.631 13.702 11.631 13.702 11.631"/><polygon class="a" points="13.335 12.715 19.719 12.715 19.719 12.228 13.487 12.228 13.335 12.715 13.335 12.715 13.335 12.715"/><polygon class="a" points="13.547 17.955 19.734 17.955 19.734 17.467 13.396 17.467 13.547 17.955 13.547 17.955 13.547 17.955"/><polygon class="a" points="14.004 19.039 19.734 19.039 19.734 18.551 13.777 18.551 14.004 19.039 14.004 19.039 14.004 19.039"/><polygon class="a" points="14.646 20.12 19.734 20.12 19.734 19.632 14.341 19.632 14.646 20.12 14.646 20.12 14.646 20.12"/><polygon class="a" points="15.531 21.204 19.734 21.204 19.734 20.713 15.104 20.713 15.531 21.204 15.531 21.204 15.531 21.204"/><polygon class="a" points="13.12 13.796 19.719 13.796 19.719 13.309 13.214 13.309 13.12 13.796 13.12 13.796 13.12 13.796"/><polygon class="a" points="17.142 16.874 19.659 16.874 19.659 16.386 17.233 16.386 17.142 16.874 17.142 16.874 17.142 16.874"/><polygon class="a" points="17.342 15.792 19.659 15.792 19.659 15.302 17.433 15.302 17.342 15.792 17.342 15.792 17.342 15.792"/><polygon class="a" points="12.954 15.302 13.608 15.302 13.608 15.792 12.984 15.792 12.954 15.302 12.954 15.302 12.954 15.302"/><polygon class="c" points="11.733 14.711 11.691 14.708 11.648 14.702 11.609 14.696 11.57 14.69 11.533 14.684 11.494 14.678 11.455 14.672 11.412 14.665 11.37 14.66 11.321 14.656 11.267 14.653 11.209 14.65 11.146 14.65 11.076 14.653 10.997 14.66 10.909 14.665 10.849 14.675 10.791 14.684 10.74 14.702 10.694 14.72 10.652 14.741 10.613 14.765 10.582 14.796 10.554 14.823 10.537 14.856 10.522 14.89 10.516 14.926 10.516 14.962 10.524 15.002 10.537 15.041 10.561 15.081 10.591 15.12 10.652 15.177 10.725 15.223 10.809 15.262 10.9 15.295 10.997 15.326 11.097 15.359 11.197 15.396 11.294 15.435 11.385 15.486 11.469 15.55 11.545 15.626 11.609 15.72 11.657 15.834 11.688 15.971 11.7 16.135 11.688 16.325 11.667 16.468 11.63 16.592 11.581 16.707 11.521 16.807 11.452 16.895 11.372 16.97 11.288 17.037 11.194 17.095 11.097 17.14 10.997 17.179 10.894 17.209 10.788 17.234 10.685 17.252 10.586 17.261 10.486 17.267 10.392 17.27 10.261 17.27 10.14 17.267 10.034 17.267 9.934 17.264 9.843 17.261 9.762 17.255 9.689 17.249 9.619 17.24 9.555 17.234 9.498 17.222 9.441 17.212 9.389 17.198 9.337 17.185 9.289 17.167 9.24 17.149 9.189 17.131 9.325 16.462 9.353 16.468 9.386 16.477 9.428 16.488 9.48 16.501 9.534 16.513 9.595 16.525 9.662 16.54 9.734 16.552 9.81 16.564 9.889 16.577 9.97 16.585 10.055 16.595 10.143 16.598 10.231 16.601 10.318 16.601 10.406 16.598 10.494 16.58 10.564 16.555 10.618 16.522 10.661 16.48 10.691 16.437 10.716 16.388 10.731 16.34 10.743 16.295 10.749 16.207 10.722 16.131 10.67 16.07 10.594 16.019 10.503 15.974 10.397 15.928 10.279 15.886 10.161 15.838 10.04 15.783 9.925 15.72 9.819 15.641 9.722 15.547 9.646 15.432 9.592 15.295 9.564 15.132 9.568 14.938 9.583 14.82 9.604 14.708 9.635 14.605 9.67 14.508 9.719 14.417 9.773 14.339 9.837 14.263 9.913 14.197 10.001 14.139 10.098 14.09 10.207 14.045 10.328 14.012 10.464 13.984 10.613 13.963 10.776 13.951 10.955 13.948 11.067 13.948 11.17 13.951 11.264 13.954 11.348 13.957 11.424 13.963 11.494 13.969 11.554 13.975 11.609 13.981 11.66 13.987 11.703 13.996 11.742 14.002 11.779 14.008 11.809 14.014 11.836 14.018 11.863 14.024 11.888 14.027 11.733 14.711 11.733 14.711 11.733 14.711"/><polygon class="c" points="12.451 13.279 13.29 13.279 13.166 14.012 13.671 14.012 13.562 14.696 13.029 14.681 12.739 16.37 12.736 16.431 12.75 16.483 12.781 16.522 12.82 16.555 12.875 16.577 12.935 16.595 13.002 16.606 13.075 16.613 13.141 16.61 13.202 16.604 13.256 16.595 13.305 16.583 13.345 16.57 13.372 16.562 13.39 16.555 13.396 16.552 13.29 17.116 13.269 17.131 13.247 17.143 13.226 17.155 13.205 17.167 13.184 17.176 13.159 17.185 13.132 17.194 13.105 17.203 13.075 17.212 13.044 17.219 13.008 17.225 12.972 17.231 12.933 17.237 12.887 17.243 12.838 17.249 12.787 17.255 12.556 17.255 12.435 17.246 12.33 17.234 12.233 17.216 12.151 17.194 12.081 17.167 12.024 17.137 11.972 17.101 11.933 17.061 11.903 17.019 11.881 16.967 11.866 16.915 11.857 16.858 11.854 16.794 11.854 16.728 11.863 16.659 11.873 16.583 12.451 13.279 12.451 13.279 12.451 13.279"/><polygon class="c" points="21.563 14.193 21.524 14.172 21.485 14.154 21.442 14.132 21.397 14.111 21.351 14.093 21.3 14.075 21.249 14.057 21.194 14.039 21.137 14.024 21.078 14.012 21.016 13.999 20.952 13.99 20.882 13.984 20.813 13.978 20.74 13.978 20.664 13.978 20.589 13.978 20.51 13.984 20.428 13.994 20.343 14.008 20.258 14.032 20.174 14.066 20.089 14.108 20.004 14.163 19.922 14.229 19.843 14.308 19.767 14.405 19.695 14.517 19.628 14.65 19.565 14.802 19.507 14.972 19.459 15.165 19.44 15.274 19.429 15.38 19.422 15.486 19.426 15.589 19.434 15.692 19.455 15.789 19.483 15.88 19.516 15.971 19.562 16.053 19.616 16.131 19.68 16.201 19.753 16.265 19.834 16.319 19.928 16.365 20.031 16.404 20.146 16.431 20.186 16.44 20.231 16.449 20.286 16.456 20.346 16.462 20.412 16.468 20.483 16.468 20.558 16.468 20.634 16.462 20.712 16.452 20.791 16.437 20.867 16.416 20.943 16.392 21.018 16.358 21.088 16.319 21.151 16.271 21.212 16.216 21.076 17.025 21.058 17.04 21.04 17.058 21.016 17.08 20.989 17.097 20.955 17.121 20.913 17.143 20.864 17.164 20.81 17.182 20.74 17.203 20.661 17.219 20.57 17.231 20.464 17.243 20.346 17.249 20.21 17.252 20.056 17.249 19.886 17.24 19.746 17.225 19.607 17.194 19.468 17.149 19.329 17.088 19.195 17.016 19.068 16.924 18.947 16.819 18.835 16.698 18.735 16.562 18.65 16.41 18.578 16.241 18.523 16.056 18.487 15.853 18.474 15.638 18.481 15.402 18.514 15.15 18.538 15.026 18.565 14.905 18.596 14.787 18.626 14.675 18.659 14.569 18.698 14.463 18.738 14.363 18.78 14.269 18.826 14.175 18.871 14.087 18.923 14.002 18.977 13.924 19.032 13.848 19.092 13.775 19.153 13.709 19.216 13.645 19.286 13.584 19.356 13.527 19.429 13.475 19.504 13.427 19.586 13.381 19.668 13.342 19.753 13.306 19.84 13.272 19.935 13.242 20.028 13.218 20.125 13.197 20.228 13.179 20.331 13.163 20.44 13.151 20.549 13.146 20.664 13.142 20.762 13.146 20.855 13.151 20.946 13.161 21.036 13.173 21.122 13.184 21.203 13.203 21.282 13.218 21.355 13.236 21.424 13.254 21.485 13.272 21.543 13.291 21.591 13.309 21.633 13.324 21.67 13.336 21.697 13.348 21.715 13.355 21.563 14.193 21.563 14.193 21.563 14.193"/><polygon class="c" points="29.02 17.255 28.181 17.255 28.242 16.919 28.242 16.888 28.193 16.949 28.141 17.003 28.09 17.052 28.036 17.095 27.981 17.134 27.926 17.167 27.872 17.194 27.814 17.222 27.757 17.243 27.699 17.258 27.642 17.273 27.581 17.282 27.521 17.291 27.463 17.297 27.403 17.3 27.342 17.3 27.185 17.288 27.039 17.255 26.906 17.203 26.785 17.134 26.676 17.046 26.579 16.943 26.494 16.831 26.421 16.704 26.361 16.567 26.312 16.425 26.279 16.277 26.255 16.122 26.246 15.968 26.249 15.811 26.264 15.656 26.291 15.502 26.336 15.323 26.391 15.153 26.455 14.999 26.53 14.853 26.609 14.717 26.7 14.596 26.793 14.487 26.894 14.387 27 14.299 27.112 14.223 27.227 14.157 27.342 14.105 27.463 14.063 27.584 14.036 27.705 14.018 27.829 14.012 27.918 14.014 28.002 14.024 28.081 14.039 28.154 14.06 28.223 14.085 28.284 14.111 28.345 14.145 28.399 14.178 28.447 14.214 28.493 14.254 28.532 14.293 28.569 14.332 28.599 14.372 28.626 14.411 28.651 14.448 28.668 14.484 28.668 14.484 28.881 13.294 29.704 13.294 29.02 17.255 29.02 17.255 29.02 17.255"/><polygon class="a" points="27.648 16.522 27.732 16.516 27.811 16.498 27.884 16.477 27.954 16.443 28.017 16.407 28.078 16.361 28.136 16.31 28.187 16.255 28.232 16.195 28.275 16.128 28.314 16.059 28.348 15.986 28.378 15.91 28.402 15.832 28.423 15.75 28.438 15.668 28.453 15.584 28.463 15.496 28.463 15.413 28.46 15.329 28.451 15.25 28.438 15.174 28.417 15.102 28.393 15.032 28.363 14.972 28.326 14.914 28.287 14.865 28.242 14.823 28.19 14.787 28.136 14.762 28.078 14.747 28.015 14.741 27.932 14.747 27.857 14.76 27.787 14.784 27.717 14.814 27.657 14.853 27.596 14.902 27.545 14.953 27.493 15.011 27.448 15.077 27.406 15.147 27.366 15.22 27.333 15.298 27.302 15.38 27.279 15.462 27.254 15.55 27.236 15.638 27.221 15.771 27.227 15.917 27.248 16.065 27.288 16.207 27.348 16.331 27.427 16.431 27.527 16.498 27.648 16.522 27.648 16.522 27.648 16.522"/><polygon class="c" points="9.05 16.583 8.929 17.255 8.165 17.255 8.187 17.131 8.202 17.019 8.214 16.934 8.226 16.888 8.184 16.937 8.135 16.986 8.078 17.031 8.014 17.073 7.941 17.116 7.866 17.152 7.787 17.188 7.705 17.219 7.617 17.246 7.53 17.267 7.441 17.285 7.351 17.297 7.263 17.304 7.175 17.306 7.09 17.297 7.008 17.285 6.902 17.258 6.806 17.228 6.721 17.188 6.645 17.143 6.579 17.095 6.518 17.04 6.469 16.982 6.427 16.922 6.391 16.858 6.36 16.791 6.336 16.725 6.318 16.659 6.306 16.589 6.297 16.519 6.291 16.452 6.291 16.386 6.3 16.267 6.318 16.156 6.348 16.05 6.388 15.946 6.436 15.85 6.491 15.762 6.554 15.677 6.627 15.601 6.703 15.532 6.788 15.468 6.876 15.411 6.966 15.362 7.063 15.32 7.163 15.286 7.266 15.259 7.372 15.241 7.378 15.241 7.393 15.238 7.415 15.235 7.448 15.232 7.484 15.226 7.526 15.223 7.572 15.217 7.623 15.211 7.675 15.205 7.727 15.199 7.781 15.195 7.829 15.189 7.878 15.187 7.923 15.183 7.966 15.18 7.999 15.18 8.069 15.18 8.142 15.183 8.208 15.187 8.274 15.187 8.329 15.189 8.372 15.192 8.401 15.195 8.411 15.195 8.417 15.174 8.435 15.12 8.45 15.056 8.456 14.999 8.444 14.932 8.417 14.871 8.38 14.817 8.332 14.771 8.274 14.733 8.211 14.705 8.138 14.687 8.06 14.681 7.975 14.678 7.883 14.675 7.79 14.675 7.693 14.678 7.593 14.684 7.496 14.693 7.399 14.702 7.306 14.714 7.214 14.726 7.126 14.741 7.048 14.756 6.975 14.771 6.909 14.79 6.854 14.808 6.812 14.829 6.778 14.847 6.993 14.117 7.06 14.09 7.126 14.066 7.199 14.045 7.272 14.029 7.345 14.014 7.424 14.002 7.502 13.99 7.584 13.984 7.669 13.978 7.757 13.975 7.847 13.972 7.941 13.972 8.038 13.972 8.138 13.972 8.244 13.975 8.35 13.978 8.435 13.984 8.526 13.999 8.62 14.021 8.716 14.048 8.811 14.085 8.901 14.127 8.992 14.178 9.078 14.235 9.152 14.302 9.22 14.375 9.28 14.456 9.325 14.547 9.356 14.645 9.374 14.747 9.374 14.862 9.356 14.984 9.05 16.583 9.05 16.583 9.05 16.583"/><polygon class="b" points="8.32 15.792 8.317 15.777 8.305 15.762 8.286 15.753 8.256 15.747 8.223 15.741 8.184 15.737 8.138 15.737 8.092 15.737 8.045 15.741 7.993 15.747 7.945 15.753 7.896 15.759 7.851 15.765 7.808 15.774 7.772 15.783 7.738 15.792 7.717 15.798 7.693 15.808 7.66 15.819 7.626 15.834 7.587 15.853 7.548 15.874 7.505 15.895 7.466 15.919 7.424 15.95 7.384 15.98 7.347 16.016 7.315 16.053 7.284 16.092 7.263 16.135 7.245 16.183 7.235 16.231 7.233 16.334 7.248 16.416 7.278 16.477 7.317 16.522 7.363 16.552 7.415 16.57 7.463 16.58 7.512 16.583 7.602 16.58 7.684 16.57 7.763 16.558 7.833 16.54 7.893 16.519 7.95 16.492 8.002 16.465 8.048 16.431 8.087 16.401 8.123 16.365 8.153 16.331 8.178 16.295 8.198 16.259 8.218 16.222 8.232 16.189 8.241 16.156 8.265 16.068 8.286 15.968 8.305 15.871 8.32 15.792 8.32 15.792 8.32 15.792"/><polygon class="c" points="2.677 17.255 1.854 17.255 2.542 13.279 3.974 13.279 4.11 15.638 5.101 13.279 6.597 13.279 5.894 17.255 5.07 17.255 5.591 14.284 5.558 14.284 4.325 17.255 3.396 17.255 3.39 17.131 3.368 16.801 3.341 16.331 3.311 15.792 3.28 15.25 3.253 14.775 3.232 14.43 3.226 14.284 3.217 14.284 3.199 14.284 3.181 14.284 3.181 14.284 2.677 17.255 2.677 17.255 2.677 17.255"/><polygon class="c" points="24.081 16.583 23.956 17.255 23.196 17.255 23.202 17.131 23.205 17.022 23.205 16.94 23.211 16.904 23.172 16.949 23.126 16.995 23.072 17.037 23.011 17.08 22.948 17.119 22.875 17.155 22.799 17.192 22.723 17.222 22.642 17.246 22.557 17.27 22.472 17.285 22.388 17.297 22.299 17.304 22.215 17.306 22.133 17.297 22.051 17.285 21.942 17.258 21.846 17.228 21.76 17.188 21.681 17.143 21.615 17.095 21.557 17.04 21.509 16.982 21.467 16.922 21.431 16.858 21.403 16.791 21.379 16.725 21.364 16.659 21.351 16.589 21.343 16.519 21.336 16.452 21.336 16.386 21.343 16.267 21.361 16.156 21.388 16.05 21.427 15.946 21.473 15.85 21.53 15.762 21.594 15.677 21.664 15.601 21.742 15.532 21.824 15.468 21.912 15.411 22.006 15.362 22.1 15.32 22.199 15.286 22.299 15.259 22.402 15.241 22.409 15.241 22.423 15.238 22.445 15.235 22.475 15.232 22.515 15.226 22.557 15.223 22.603 15.217 22.65 15.211 22.702 15.205 22.757 15.199 22.808 15.195 22.86 15.189 22.908 15.187 22.95 15.183 22.993 15.18 23.026 15.18 23.099 15.18 23.172 15.183 23.241 15.187 23.308 15.187 23.366 15.189 23.414 15.192 23.441 15.195 23.454 15.195 23.46 15.174 23.469 15.12 23.478 15.056 23.483 14.999 23.472 14.932 23.448 14.871 23.408 14.817 23.362 14.771 23.308 14.733 23.245 14.705 23.178 14.687 23.105 14.681 23.02 14.678 22.93 14.675 22.835 14.675 22.738 14.678 22.639 14.684 22.542 14.693 22.445 14.702 22.351 14.714 22.26 14.726 22.173 14.741 22.093 14.756 22.021 14.771 21.954 14.79 21.9 14.808 21.857 14.829 21.824 14.847 22.036 14.117 22.102 14.09 22.173 14.066 22.242 14.045 22.314 14.029 22.39 14.014 22.466 14.002 22.544 13.99 22.627 13.984 22.711 13.978 22.799 13.975 22.887 13.972 22.981 13.972 23.075 13.972 23.172 13.972 23.275 13.975 23.378 13.978 23.463 13.984 23.553 13.999 23.647 14.021 23.744 14.048 23.838 14.085 23.932 14.127 24.022 14.178 24.107 14.235 24.184 14.302 24.253 14.375 24.313 14.456 24.359 14.547 24.392 14.645 24.414 14.747 24.414 14.862 24.398 14.984 24.081 16.583 24.081 16.583 24.081 16.583"/><polygon class="c" points="23.956 17.276 23.974 17.258 24.098 16.585 24.062 16.58 23.938 17.252 23.956 17.234 23.956 17.276 23.971 17.273 23.974 17.258 23.956 17.276 23.956 17.276 23.956 17.276"/><polygon class="c" points="23.178 17.255 23.196 17.276 23.956 17.276 23.956 17.234 23.196 17.234 23.214 17.255 23.178 17.255 23.175 17.276 23.196 17.276 23.178 17.255 23.178 17.255 23.178 17.255"/><polygon class="c" points="23.226 16.915 23.199 16.892 23.187 16.94 23.183 17.022 23.183 17.131 23.178 17.255 23.214 17.255 23.22 17.131 23.226 17.022 23.223 16.94 23.223 16.915 23.196 16.892 23.226 16.915 23.226 16.915 23.226 16.915"/><polygon class="c" points="22.048 17.304 22.048 17.304 22.133 17.316 22.215 17.324 22.299 17.322 22.388 17.316 22.475 17.304 22.56 17.288 22.645 17.264 22.729 17.24 22.805 17.209 22.884 17.173 22.957 17.137 23.02 17.095 23.084 17.052 23.138 17.01 23.187 16.961 23.226 16.915 23.196 16.892 23.157 16.937 23.114 16.979 23.06 17.022 23.002 17.064 22.939 17.101 22.866 17.137 22.793 17.173 22.717 17.203 22.639 17.228 22.554 17.252 22.469 17.267 22.388 17.279 22.299 17.285 22.215 17.288 22.133 17.279 22.054 17.267 22.054 17.267 22.048 17.304 22.048 17.304 22.048 17.304"/><polygon class="c" points="21.315 16.386 21.315 16.386 21.318 16.452 21.324 16.519 21.334 16.592 21.346 16.661 21.361 16.728 21.385 16.798 21.412 16.867 21.452 16.931 21.494 16.995 21.543 17.052 21.603 17.11 21.673 17.158 21.751 17.207 21.84 17.246 21.939 17.276 22.048 17.304 22.054 17.267 21.945 17.24 21.851 17.209 21.77 17.17 21.691 17.128 21.627 17.08 21.573 17.028 21.524 16.97 21.482 16.913 21.449 16.849 21.422 16.786 21.397 16.722 21.382 16.655 21.37 16.585 21.361 16.519 21.355 16.452 21.358 16.386 21.358 16.386 21.315 16.386 21.315 16.386 21.315 16.386"/><polygon class="c" points="22.402 15.223 22.402 15.223 22.297 15.241 22.194 15.268 22.093 15.302 21.997 15.344 21.903 15.392 21.812 15.453 21.73 15.517 21.651 15.589 21.579 15.665 21.515 15.75 21.454 15.841 21.409 15.941 21.37 16.044 21.343 16.152 21.324 16.267 21.315 16.386 21.358 16.386 21.361 16.267 21.379 16.159 21.406 16.056 21.446 15.953 21.491 15.859 21.545 15.774 21.609 15.689 21.675 15.614 21.754 15.547 21.836 15.483 21.92 15.429 22.015 15.38 22.106 15.338 22.206 15.305 22.302 15.277 22.402 15.259 22.402 15.259 22.402 15.223 22.402 15.223 22.402 15.223"/><polygon class="c" points="23.026 15.159 23.026 15.159 22.993 15.159 22.95 15.165 22.908 15.169 22.86 15.171 22.808 15.177 22.757 15.18 22.702 15.187 22.65 15.192 22.603 15.199 22.557 15.205 22.515 15.208 22.475 15.214 22.445 15.217 22.421 15.22 22.409 15.223 22.402 15.223 22.402 15.259 22.409 15.259 22.427 15.256 22.445 15.253 22.475 15.25 22.515 15.244 22.557 15.241 22.603 15.235 22.65 15.229 22.702 15.223 22.757 15.217 22.808 15.214 22.86 15.208 22.908 15.205 22.95 15.202 22.993 15.202 23.026 15.202 23.026 15.202 23.026 15.159 23.026 15.159 23.026 15.159"/><polygon class="c" points="23.435 15.192 23.454 15.177 23.441 15.177 23.414 15.174 23.366 15.171 23.308 15.165 23.241 15.165 23.172 15.165 23.099 15.159 23.026 15.159 23.026 15.202 23.099 15.202 23.172 15.202 23.241 15.208 23.308 15.208 23.366 15.208 23.414 15.211 23.441 15.214 23.454 15.214 23.472 15.199 23.454 15.214 23.469 15.217 23.472 15.199 23.435 15.192 23.435 15.192 23.435 15.192"/><polygon class="c" points="23.466 14.999 23.463 14.999 23.46 15.056 23.45 15.117 23.441 15.171 23.435 15.192 23.472 15.199 23.478 15.177 23.487 15.122 23.495 15.056 23.505 14.999 23.502 14.999 23.466 14.999 23.466 14.999 23.466 14.999"/><polygon class="c" points="23.105 14.699 23.105 14.702 23.175 14.705 23.238 14.723 23.299 14.75 23.35 14.787 23.392 14.829 23.429 14.881 23.454 14.935 23.466 14.999 23.502 14.999 23.489 14.929 23.466 14.862 23.423 14.805 23.375 14.756 23.317 14.714 23.25 14.687 23.181 14.669 23.105 14.66 23.105 14.663 23.105 14.699 23.105 14.699 23.105 14.699"/><polygon class="c" points="21.806 14.844 21.836 14.862 21.866 14.847 21.906 14.826 21.958 14.808 22.024 14.79 22.097 14.775 22.175 14.76 22.263 14.744 22.351 14.733 22.445 14.72 22.542 14.711 22.639 14.702 22.738 14.696 22.835 14.696 22.93 14.696 23.02 14.696 23.105 14.699 23.105 14.663 23.02 14.66 22.93 14.653 22.835 14.653 22.738 14.66 22.639 14.665 22.542 14.675 22.445 14.684 22.351 14.696 22.257 14.708 22.169 14.723 22.091 14.738 22.018 14.754 21.951 14.771 21.894 14.79 21.848 14.811 21.812 14.832 21.842 14.85 21.806 14.844 21.806 14.844 21.806 14.844"/><polygon class="c" points="22.03 14.099 22.018 14.115 21.806 14.844 21.842 14.85 22.054 14.12 22.042 14.136 22.03 14.099 22.021 14.102 22.018 14.115 22.03 14.099 22.03 14.099 22.03 14.099"/><polygon class="c" points="23.378 13.96 23.378 13.96 23.275 13.954 23.172 13.951 23.075 13.951 22.981 13.951 22.887 13.951 22.799 13.957 22.711 13.96 22.627 13.966 22.544 13.972 22.463 13.984 22.388 13.996 22.312 14.012 22.239 14.027 22.166 14.048 22.097 14.072 22.03 14.099 22.042 14.136 22.109 14.108 22.178 14.085 22.245 14.063 22.318 14.048 22.394 14.032 22.469 14.021 22.544 14.008 22.627 14.002 22.711 13.996 22.799 13.994 22.887 13.994 22.981 13.994 23.075 13.994 23.172 13.994 23.275 13.996 23.378 13.996 23.378 13.996 23.378 13.96 23.378 13.96 23.378 13.96"/><polygon class="c" points="24.417 14.987 24.417 14.987 24.432 14.862 24.432 14.747 24.411 14.641 24.377 14.541 24.329 14.448 24.268 14.363 24.195 14.287 24.12 14.22 24.032 14.163 23.941 14.108 23.844 14.066 23.75 14.029 23.651 14.002 23.556 13.981 23.463 13.966 23.378 13.96 23.378 13.996 23.463 14.002 23.55 14.018 23.644 14.039 23.738 14.066 23.832 14.102 23.923 14.145 24.014 14.193 24.095 14.251 24.171 14.317 24.238 14.387 24.298 14.465 24.34 14.554 24.374 14.648 24.395 14.747 24.395 14.862 24.38 14.981 24.38 14.981 24.417 14.987 24.417 14.987 24.417 14.987"/><polygon class="c" points="24.098 16.585 24.098 16.585 24.417 14.987 24.38 14.981 24.062 16.58 24.062 16.58 24.098 16.585 24.098 16.585 24.098 16.585"/><polygon class="a" points="23.347 15.792 23.341 15.774 23.33 15.759 23.308 15.75 23.278 15.741 23.245 15.737 23.205 15.734 23.159 15.734 23.114 15.737 23.066 15.744 23.017 15.75 22.969 15.756 22.923 15.762 22.879 15.771 22.839 15.777 22.799 15.786 22.769 15.792 22.748 15.795 22.723 15.804 22.693 15.813 22.66 15.826 22.62 15.843 22.584 15.862 22.542 15.883 22.503 15.91 22.463 15.938 22.423 15.971 22.39 16.004 22.357 16.044 22.33 16.086 22.308 16.131 22.291 16.18 22.282 16.231 22.279 16.334 22.293 16.416 22.318 16.477 22.354 16.522 22.399 16.552 22.451 16.57 22.503 16.58 22.554 16.583 22.645 16.58 22.729 16.57 22.808 16.555 22.879 16.534 22.945 16.51 23.002 16.483 23.057 16.452 23.105 16.416 23.148 16.383 23.183 16.344 23.217 16.307 23.245 16.267 23.265 16.231 23.281 16.195 23.293 16.159 23.302 16.125 23.314 16.04 23.33 15.953 23.341 15.868 23.347 15.792 23.347 15.792 23.347 15.792"/><polygon class="c" points="29.586 16.84 29.593 16.77 29.616 16.689 29.659 16.616 29.71 16.552 29.774 16.501 29.847 16.465 29.926 16.44 30.01 16.431 30.095 16.44 30.174 16.465 30.246 16.501 30.31 16.552 30.362 16.616 30.404 16.689 30.428 16.77 30.434 16.84 30.343 16.84 30.341 16.786 30.322 16.719 30.292 16.659 30.252 16.606 30.204 16.564 30.147 16.534 30.08 16.513 30.01 16.507 29.941 16.513 29.874 16.534 29.817 16.564 29.768 16.606 29.728 16.659 29.698 16.719 29.68 16.786 29.674 16.84 29.586 16.84 29.586 16.84 29.586 16.84"/><polygon class="c" points="29.859 16.84 29.859 16.659 30.025 16.659 30.062 16.661 30.095 16.667 30.119 16.676 30.14 16.689 30.155 16.707 30.168 16.725 30.174 16.746 30.177 16.767 30.174 16.794 30.168 16.816 30.159 16.834 30.152 16.84 30.025 16.84 30.037 16.837 30.059 16.834 30.077 16.828 30.092 16.822 30.104 16.813 30.11 16.803 30.116 16.789 30.116 16.767 30.113 16.752 30.107 16.74 30.098 16.734 30.089 16.728 30.074 16.725 30.059 16.722 30.043 16.722 30.025 16.722 29.935 16.722 29.935 16.84 29.859 16.84 29.859 16.84 29.859 16.84"/><polygon class="c" points="29.586 16.84 29.583 16.858 29.593 16.946 29.616 17.028 29.659 17.101 29.71 17.161 29.774 17.212 29.847 17.252 29.926 17.276 30.01 17.285 30.095 17.276 30.174 17.252 30.246 17.212 30.31 17.161 30.362 17.101 30.404 17.028 30.428 16.946 30.437 16.858 30.434 16.84 30.343 16.84 30.346 16.858 30.341 16.931 30.322 16.998 30.292 17.055 30.252 17.106 30.204 17.149 30.147 17.182 30.08 17.203 30.01 17.209 29.941 17.203 29.874 17.182 29.817 17.149 29.768 17.106 29.728 17.055 29.698 16.998 29.68 16.931 29.674 16.858 29.674 16.84 29.586 16.84 29.586 16.84 29.586 16.84"/><polygon class="c" points="29.859 16.84 29.859 17.025 29.935 17.025 29.935 16.874 30.01 16.874 30.101 17.025 30.162 17.025 30.071 16.874 30.092 16.874 30.113 16.867 30.131 16.861 30.147 16.849 30.152 16.84 30.025 16.84 30.01 16.843 29.935 16.843 29.935 16.84 29.859 16.84 29.859 16.84 29.859 16.84"/><polygon class="c" points="24.308 17.255 25.162 17.255 25.162 17.255 25.468 15.532 25.479 15.466 25.498 15.398 25.516 15.332 25.54 15.265 25.57 15.199 25.607 15.135 25.646 15.075 25.695 15.017 25.749 14.966 25.81 14.917 25.879 14.871 25.958 14.835 26.046 14.805 26.143 14.781 26.249 14.762 26.367 14.756 26.41 14.756 26.433 14.756 26.442 14.756 26.442 14.756 26.579 13.978 26.494 13.984 26.412 13.994 26.336 14.008 26.264 14.029 26.197 14.054 26.134 14.085 26.073 14.117 26.015 14.154 25.961 14.197 25.909 14.239 25.861 14.287 25.813 14.335 25.767 14.387 25.722 14.444 25.676 14.499 25.634 14.56 25.725 14.012 24.874 14.012 24.308 17.255 24.308 17.255 24.308 17.255 24.308 17.255"/><polygon class="c" points="16.288 17.255 17.142 17.255 17.157 17.255 17.448 15.532 17.46 15.466 17.475 15.402 17.49 15.338 17.512 15.277 17.536 15.217 17.566 15.159 17.602 15.105 17.645 15.053 17.693 15.007 17.748 14.962 17.815 14.926 17.887 14.893 17.972 14.865 18.066 14.842 18.169 14.826 18.286 14.817 18.296 14.817 18.308 14.82 18.323 14.823 18.338 14.823 18.353 14.826 18.366 14.829 18.374 14.832 18.378 14.832 18.381 14.82 18.39 14.784 18.402 14.729 18.417 14.663 18.438 14.584 18.459 14.499 18.487 14.414 18.514 14.329 18.538 14.272 18.569 14.214 18.599 14.157 18.629 14.105 18.656 14.06 18.677 14.024 18.692 14.002 18.698 13.994 18.696 13.994 18.684 13.99 18.669 13.987 18.647 13.984 18.626 13.984 18.602 13.981 18.581 13.978 18.559 13.978 18.465 13.984 18.381 13.994 18.302 14.008 18.23 14.027 18.16 14.051 18.096 14.081 18.038 14.111 17.984 14.147 17.933 14.187 17.884 14.233 17.839 14.278 17.793 14.329 17.748 14.381 17.705 14.439 17.66 14.499 17.614 14.56 17.723 14.012 16.854 14.012 16.288 17.255 16.288 17.255 16.288 17.255 16.288 17.255"/><path class="c" d="M16.382,14.977l-.024-.181-.043-.161-.06-.139-.076-.121-.091-.1-.1-.085-.109-.073-.118-.054-.121-.046-.124-.03-.124-.021-.124-.012-.118,0-.246.013L14.686,14l-.2.055-.175.076-.151.091-.134.1-.118.115-.1.121-.085.127-.07.133-.054.131-.046.13-.033.128-.025.118-.018.112-.012.1-.015.248.009.224.033.2.051.179.073.161.088.139.1.124.118.1.127.088.137.075.142.058.148.045.151.037.152.021.151.015.148,0h.1l.094,0h.081l.079,0,.07-.006.064-.006.06-.006.055-.009.051-.01.048-.011.049-.015.046-.015.045-.019.049-.018.048-.025.049-.024.121-.745-.088.052-.085.048-.087.037-.085.033-.082.027-.085.018-.082.015-.082.012-.082.006-.078,0h-.082l-.079,0-.079-.006-.079-.009-.076-.009-.079-.012-.061-.012-.06-.021-.06-.027-.055-.034-.054-.036-.049-.045-.045-.046-.042-.052-.036-.051-.033-.057-.025-.055-.021-.058L14.335,16l-.006-.058,0-.051.007-.039H16.3l.015-.185.046-.255.021-.23Zm-.821.279H14.455v0h0l.008-.042.012-.064.018-.061.021-.06.027-.054.027-.052.033-.049.036-.045.04-.042.039-.036.046-.033.045-.027.052-.024.051-.018.051-.012.054-.009.058,0,.055.006.051.009.049.012.048.018.046.024.045.027.04.03.036.036.03.042.031.045.021.052.021.058.012.06.006.067,0,.073Z"/></svg>